# xmcd
#
# Track frame offsets:
#	150
#	23492
#	49707
#	70795
#	94877
#	119115
#	141420
#	158345
#	179070
#	194400
#
# Disc length: 2892 seconds
#
# Revision: 2
# Processed by: cddbd v1.5.2PL0 Copyright (c) Steve Scherf et al.
# Submitted via: EasyCDDAExtractor 12.0.1.1
#
DISCID=8c0b4a0a
DTITLE=Emmanuel - Amor Total
DYEAR=1996
DGENRE=Latin
TTITLE0=Amor Total
TTITLE1=Tarumba
TTITLE2=Mi Mujer
TTITLE3=Corazones
TTITLE4=Adios, Mi Sirena, Adios
TTITLE5=La Fuerza De La Vida
TTITLE6=Un Dia, Otro Dia Y Otro
TTITLE7=Fuego Y Miel
TTITLE8=Lo Eres Todo
TTITLE9=Pequeño Gran Chopin
EXTD=
EXTT0=
EXTT1=
EXTT2=
EXTT3=
EXTT4=
EXTT5=
EXTT6=
EXTT7=
EXTT8=
EXTT9=
PLAYORDER=
